Coordinates
version=1
nRows=11
nColumns=32
inDegrees=yes

Units are S.I. units (second, meters, Newtons, ...)
If the header above contains a line with 'inDegrees', this indicates whether rotational values are in degrees (yes) or radians (no).

endheader
time	pelvis_tilt	pelvis_list	pelvis_rotation	pelvis_tx	pelvis_ty	pelvis_tz	hip_flexion_r	hip_adduction_r	hip_rotation_r	knee_angle_r	knee_adduction_r	med_cond_adduction_r	lat_cond_adduction_r	patella_r_constrained_knee_angle	ankle_angle_r	subtalar_angle_r	mtp_angle_r	hip_flexion_l	hip_adduction_l	hip_rotation_l	knee_angle_l	knee_adduction_l	med_cond_adduction_l	lat_cond_adduction_l	patella_l_constrained_knee_angle	ankle_angle_l	subtalar_angle_l	mtp_angle_l	lumbar_extension	lumbar_bending	lumbar_rotation
      0.61500000	      3.83154901	     -4.66321885	     -7.28336593	      0.23356310	      0.91019498	      0.22054208	    -25.15331369	     -1.43888127	     -5.17077154	     -9.08492574	      3.23616197	     -0.00000000	     -0.00000000	     -0.15856187	     -0.74068923	      5.57436721	      0.00000000	     22.18947882	    -11.64921176	    -24.75495669	    -11.02610253	      1.05927701	      0.00000000	      0.00000000	     -0.19244179	     -4.20995411	      9.67360179	      0.00000000	     -6.68156107	      2.98330103	     -0.69956160
      0.62000000	      3.99487137	     -4.25858654	     -7.63825798	      0.24128160	      0.91057962	      0.22075247	    -25.24181348	     -2.02510662	     -4.96519609	     -9.85900814	      2.96009758	     -0.00000000	     -0.00000000	     -0.17207215	     -1.57537730	      5.54505831	     -0.00000000	     21.87353816	    -11.43451526	    -24.98743988	    -11.80763561	      1.08277003	     -0.00000000	     -0.00000000	     -0.20608212	     -4.64067315	      9.16453504	     -0.00000000	     -6.77408752	      2.59611479	      0.31130398
      0.62500000	      4.06874768	     -4.05831566	     -7.79073019	      0.24887000	      0.91090013	      0.22047939	    -25.25040910	     -2.28773158	     -4.71302893	    -10.60182482	      2.67211192	     -0.00000000	      0.00000000	     -0.18503675	     -2.64108485	      5.19982549	      0.00000000	     21.69748635	    -11.33324179	    -24.65110478	    -12.55357976	      1.16376724	     -0.00000000	     -0.00000000	     -0.21910130	     -5.11841740	      8.26688983	     -0.00000000	     -6.77119354	      2.07566728	      0.39358940
      0.63000000	      4.18620448	     -3.71064970	     -7.92317064	      0.25655531	      0.91130436	      0.22009243	    -25.20628676	     -2.73248014	     -4.73628948	    -11.50549844	      2.38164055	      0.00000000	      0.00000000	     -0.20080883	     -3.63866834	      5.17696377	      0.00000000	     21.54138941	    -11.06503289	    -24.60584293	    -13.41971839	      1.13433477	     -0.00000000	     -0.00000000	     -0.23421827	     -5.55084210	      7.73051107	     -0.00000000	     -6.79801872	      1.64600300	      0.86943689
      0.63500000	      4.29228214	     -3.41551950	     -8.06236180	      0.26420344	      0.91179239	      0.21978116	    -25.12848072	     -3.11038261	     -4.63322038	    -12.42329831	      2.12030365	     -0.00000000	     -0.00000000	     -0.21682746	     -4.77263163	      4.88596063	      0.00000000	     21.37483321	    -10.89377453	    -24.49720609	    -14.28712334	      1.17769957	     -0.00000000	     -0.00000000	     -0.24935734	     -5.88500050	      7.26798765	     -0.00000000	     -6.81329306	      1.25343791	      1.35385772
      0.64000000	      4.35939355	     -3.04276320	     -8.20680589	      0.27196189	      0.91225974	      0.21953783	    -24.89043886	     -3.57210896	     -4.73115310	    -13.54907965	      1.82435338	     -0.00000000	     -0.00000000	     -0.23647605	     -5.89179469	      4.83760934	      0.00000000	     21.23223947	    -10.64628396	    -24.48444605	    -15.12551349	      1.19661353	      0.00000000	      0.00000000	     -0.26399001	     -6.21267880	      6.92550098	      0.00000000	     -6.78462753	      1.05249097	      2.35087529
      0.64500000	      4.37380558	     -2.99065149	     -8.11539541	      0.27952244	      0.91272877	      0.21865387	    -24.67929600	     -3.56470642	     -4.65948398	    -14.51263715	      1.51749743	     -0.00000000	     -0.00000000	     -0.25329330	     -7.33744655	      4.27852159	      0.00000000	     21.25407144	    -10.66684385	    -23.99954049	    -16.10040356	      1.29777854	      0.00000000	      0.00000000	     -0.28100505	     -6.43368154	      6.41065252	     -0.00000000	     -6.71545732	      0.69173977	      2.02745114
      0.65000000	      4.42965896	     -2.65352220	     -8.14977703	      0.28725065	      0.91324947	      0.21810987	    -24.31266929	     -3.96493931	     -4.91453867	    -15.81662579	      1.22003974	      0.00000000	      0.00000000	     -0.27605220	     -8.59654522	      4.21014125	      0.00000000	     21.12270115	    -10.40125237	    -23.85195271	    -16.90012841	      1.34797951	     -0.00000000	     -0.00000000	     -0.29496288	     -6.62149730	      6.10802065	      0.00000000	     -6.64494593	      0.29615587	      2.45157574
      0.65500000	      4.47382863	     -2.39056766	     -8.17277000	      0.29492885	      0.91384323	      0.21757207	    -23.90279271	     -4.26064052	     -5.07016603	    -17.14054347	      0.91498015	      0.00000000	     -0.00000000	     -0.29915892	     -9.97919898	      3.94111683	      0.00000000	     20.97105570	    -10.21312077	    -23.60414175	    -17.65974591	      1.45675356	      0.00000000	      0.00000000	     -0.30822071	     -6.74197054	      5.68920320	     -0.00000000	     -6.58034554	     -0.03419160	      2.82362530
      0.66000000	      4.49758039	     -2.13197794	     -8.16937080	      0.30262392	      0.91443232	      0.21695080	    -23.40137985	     -4.55127162	     -5.30268935	    -18.56669117	      0.60717632	     -0.00000000	     -0.00000000	     -0.32404989	    -11.42709220	      3.63182892	      0.00000000	     20.82839266	    -10.00305213	    -23.35281341	    -18.39062415	      1.55877091	     -0.00000000	     -0.00000000	     -0.32097694	     -6.77510484	      5.37096542	      0.00000000	     -6.48094619	     -0.35586054	      3.13866042
      0.66500000	      4.51345940	     -1.81142412	     -8.15032395	      0.31032194	      0.91501025	      0.21627083	    -22.79359471	     -4.93532619	     -5.65664521	    -20.15583937	      0.32217455	     -0.00000000	     -0.00000000	     -0.35178576	    -12.84315881	      3.37690896	      0.00000000	     20.66665952	     -9.68225322	    -23.11625286	    -19.03823622	      1.62991108	      0.00000000	      0.00000000	     -0.33227991	     -6.72714346	      5.02422260	     -0.00000000	     -6.36027811	     -0.74372005	      3.43303261
